<svg height="271" viewBox="0 0 299 271" width="299" xmlns="http://www.w3.org/2000/svg"><g fill="none"><path d="m298.682704 258.521171c0 3.732039-1.243986 6.842567-3.731362 9.330394-2.487971 1.866317-4.975346 3.109933-8.707303 3.109933h-273.6500251c-3.10936849 0-6.21933223-1.244211-8.70730323-3.109933-2.487971-2.488422-3.73136128-5.598355-3.73136128-9.330394v-182.259692h298.52735461z" fill="#ffd15c"/><path d="m294.951342 267.851565c-2.487971 1.866317-4.975346 3.109933-8.707303 3.109933h-273.6500251c-3.10936849 0-6.21933223-1.244211-8.70730323-3.109933l145.53201833-125.030734z" fill="#f8b64c"/><path d="m298.682704 76.261479-42.291341 30.4802-98.887324 70.913496c-4.975346 3.732039-11.816671 3.732039-16.792018 0l-98.2653312-70.913496-42.29134041-30.4802 42.29134041-30.4802004 92.0108812-18.5000323 6.841325-4.9762499c4.975347-3.7320386 11.816672-3.7320386 16.792019 0l6.841325 4.9762499 44.192436-15.7122067 21.767365 15.5508553 25.499322 18.6613837z" fill="#40596b"/><path d="m256.066586 38.8917553.182264 67.9597927-98.887324 70.913496c-4.975347 3.732039-11.816672 3.732039-16.792019 0l-98.2653307-70.913496-.1822632-94.0858488c0-6.8425669 5.5973395-12.44092246 12.4386646-12.44092246h162.3240363z" fill="#f2f2f2"/><path d="m217.831384 28.6144788c0 5.5983555 4.353354 9.9524998 9.950694 9.9524998h28.60869l-38.559979-38.5669786z" fill="#cdd6e0"/><path d="m192.373612 108.566852h11.626388c-3.632986 7.993454-9.446875 13.806685-17.440278 18.166435-8.720139 5.08649-19.619792 7.266713-32.699652 7.266713-12.353125 0-23.253473-2.180223-31.973612-6.539972-8.720139-4.35975-15.986806-10.173677-20.346528-18.893176-4.3597214-7.993454-6.53993-17.4403893-6.53993-26.8866295 0-10.8997218 2.1802086-20.3466574 7.266667-29.7935929 5.086458-9.4469356 11.626388-15.9869078 20.346527-20.3466574 8.720139-4.3597497 18.893055-6.5399722 29.793403-6.5399722 9.446875 0 18.166319 2.1802225 25.432986 5.8132313 7.266666 3.6330088 13.079861 8.7201948 16.713542 15.9869078 3.632985 6.5399722 5.813194 14.533426 5.813194 22.5268799 0 9.4469356-2.906945 18.1664349-8.720139 26.1598888-7.266667 10.1736762-16.713542 14.5334262-28.339931 14.5334262-2.906944 0-5.813194-.726741-7.266666-1.453482-1.453473-1.453482-2.906945-2.906963-2.906945-5.08649-4.359722 4.359749-9.446875 6.539972-15.26007 6.539972-6.53993 0-11.626388-2.180223-15.260069-6.539972-4.359722-4.35975-6.539931-10.1736768-6.539931-17.4403898 0-8.7201947 2.180209-16.7136486 7.266667-24.7071025 5.813194-8.7201947 13.806597-13.0799444 23.253472-13.0799444 6.539931 0 11.626389 2.9069634 15.26007 7.9934539l1.453472-6.5399722h15.26007l-8.720139 40.6933148c-.726736 2.9069634-.726736 4.3597497-.726736 5.0864905 0 .7267409 0 1.4534817.726736 2.1802226.726736.7267408.726736.7267408 1.453472.7267408 1.453473 0 4.359722-1.4534817 7.266667-3.6330088 3.632986-2.9069634 7.266667-6.5399722 9.446875-11.6264627 2.180209-5.0864904 3.632986-10.1736764 3.632986-15.2601669 0-9.4469355-3.632986-17.4403894-10.173612-23.2536208-6.53993-6.5399721-15.986805-9.4469355-28.33993-9.4469355-10.173612 0-18.893055 2.1802225-26.159722 6.5399722-7.266667 4.3597496-12.353125 10.1736764-15.986806 17.4403894s-5.086458 15.2601669-5.086458 23.9803616c0 7.9934539 2.180209 15.2601669 5.813195 21.8001388 4.359721 6.539973 9.446875 11.626463 16.713541 14.533426 7.266667 2.906964 15.26007 4.35975 24.706945 4.35975 8.720139 0 16.713542-1.453482 23.253473-3.633009 6.53993-2.907659 11.626388-6.540667 15.986806-11.627158zm-61.767015-23.2536207c0 5.0864905.726736 7.9934539 2.906945 10.8997219 2.180209 2.1802225 4.359722 3.6330087 7.266667 3.6330087 2.180208 0 4.359721-.7267408 5.813194-1.4534816 1.453472-.7267409 2.906945-2.1802226 4.359722-3.6330088 2.180208-2.1802226 3.633681-5.8132314 5.086458-10.1736765 1.453472-4.3597496 2.180208-8.7201947 2.180208-12.3532035 0-4.3597496-.726736-7.266713-2.906944-10.1736764-2.180209-2.1802225-4.359722-3.6330088-7.266667-3.6330088s-6.539931 1.4534817-8.720139 3.6330088c-2.906945 2.1802225-5.086458 5.8132313-6.539931 10.8997218-1.452777 4.3611406-2.179513 8.7208902-2.179513 12.3545944z" fill="#ff7058"/></g></svg>